<svg width="150" height="150" viewBox="0 0 150 150" fill="none" xmlns="http://www.w3.org/2000/svg">
<g clip-path="url(#clip0_4_74)">
<path d="M10.1306 107.861L16.0402 118.591C17.2682 120.85 19.0332 122.625 21.1055 123.916C27.0413 115.996 31.1723 109.918 33.5005 105.683C35.8628 101.385 38.7663 94.6623 42.211 85.5149C32.9274 84.2301 25.8924 83.588 21.106 83.588C16.5118 83.588 9.47684 84.2301 0 85.5149C0 88.0156 0.613992 90.5164 1.84198 92.7756L10.1306 107.861Z" fill="#0066DA"/>
<path d="M112.896 123.916C114.968 122.625 116.733 120.85 117.961 118.591L120.417 114.154L132.16 92.7756C133.365 90.5654 134 88.0624 134.001 85.5149C124.469 84.2301 117.447 83.588 112.934 83.588C108.084 83.588 101.062 84.2301 91.8669 85.5149C95.2709 94.7123 98.1362 101.435 100.463 105.683C102.809 109.969 106.953 116.046 112.896 123.916Z" fill="#EA4335"/>
<path d="M67.0005 40.3371C73.868 31.6188 78.601 24.8957 81.1988 20.1688C83.291 16.3624 85.5936 10.2847 88.1061 1.93622C86.0338 0.645406 83.6548 0 81.1988 0H52.8023C50.3463 0 47.9678 0.726288 45.895 1.93622C49.0911 11.5111 51.8036 18.3256 54.0313 22.379C56.4936 26.8589 60.8167 32.8447 67.0005 40.3371Z" fill="#00832D"/>
<path d="M91.79 85.5149H42.2111L21.1061 123.916C23.1778 125.207 25.5569 125.852 28.0128 125.852H105.988C108.444 125.852 110.824 125.126 112.896 123.915L91.7906 85.5149H91.79Z" fill="#2684FC"/>
<path d="M67.0005 40.3371L45.8955 1.93677C43.8227 3.22758 42.0577 5.00203 40.8297 7.26123L1.84198 78.2542C0.636566 80.4644 0.00159254 82.9673 0 85.5149H42.211L67.001 40.3371H67.0005Z" fill="#00AC47"/>
<path d="M112.666 42.7575L93.1713 7.26074C91.9439 5.00155 90.1783 3.22709 88.106 1.93628L67.001 40.3371L91.79 85.515H133.925C133.925 83.0137 133.311 80.5135 132.083 78.2543L112.666 42.7575Z" fill="#FFBA00"/>
</g>
<defs>
<clipPath id="clip0_4_74">
<rect width="134" height="126" fill="white"/>
</clipPath>
</defs>
</svg>
